# Uma casa: polígonos preenchidos (f), contornos fechados (l ... primeiro), polilinha aberta, retas e ponto
mtllib casa.mtl

o chao
v 0 200 0
v 1000 200 0
usemtl verde
l 1 2

o parede
v 300 200 0
v 700 200 0
v 700 500 0
v 300 500 0
usemtl marrom
l 3 4 5 6 3

o telhado
v 280 500 0
v 720 500 0
v 500 700 0
usemtl vermelho
f 7 8 9

o porta
v 460 200 0
v 540 200 0
v 540 340 0
v 460 340 0
usemtl marrom_escuro
f 10 11 12 13

o macaneta
v 525 270 0
usemtl amarelo
p 14

o janela_esq
v 340 380 0
v 420 380 0
v 420 450 0
v 340 450 0
usemtl azul
l 15 16 17 18 15

o janela_dir
v 580 380 0
v 660 380 0
v 660 450 0
v 580 450 0
usemtl azul
l 19 20 21 22 19

o cruz_janela_esq_v
v 380 380 0
v 380 450 0
usemtl azul
l 23 24

o cruz_janela_esq_h
v 340 415 0
v 420 415 0
usemtl azul
l 25 26

o cruz_janela_dir_v
v 620 380 0
v 620 450 0
usemtl azul
l 27 28

o cruz_janela_dir_h
v 580 415 0
v 660 415 0
usemtl azul
l 29 30

o chamine
v 600 609 0
v 600 680 0
v 640 680 0
v 640 573 0
usemtl cinza
l 31 32 33 34

o sol
v 850 910 0
v 820 901.962 0
v 798.038 880 0
v 790 850 0
v 798.038 820 0
v 820 798.038 0
v 850 790 0
v 880 798.038 0
v 901.962 820 0
v 910 850 0
v 901.962 880 0
v 880 901.962 0
usemtl amarelo
f 35 36 37 38 39 40 41 42 43 44 45 46

o raio_1
v 925 850 0
v 955 850 0
usemtl amarelo
l 47 48

o raio_2
v 903.033 903.033 0
v 924.246 924.246 0
usemtl amarelo
l 49 50

o raio_3
v 850 925 0
v 850 955 0
usemtl amarelo
l 51 52

o raio_4
v 796.967 903.033 0
v 775.754 924.246 0
usemtl amarelo
l 53 54

o raio_5
v 775 850 0
v 745 850 0
usemtl amarelo
l 55 56

o raio_6
v 796.967 796.967 0
v 775.754 775.754 0
usemtl amarelo
l 57 58

o raio_7
v 850 775 0
v 850 745 0
usemtl amarelo
l 59 60

o raio_8
v 903.033 796.967 0
v 924.246 775.754 0
usemtl amarelo
l 61 62

o arvore_tronco
v 120 200 0
v 160 200 0
v 160 320 0
v 120 320 0
usemtl marrom_escuro
f 63 64 65 66

o arvore_copa
v 140 490 0
v 69.635 456.114 0
v 52.256 379.973 0
v 100.95 318.913 0
v 179.05 318.913 0
v 227.744 379.973 0
v 210.365 456.114 0
usemtl verde
f 67 68 69 70 71 72 73
