# Formas variadas para testar transformações e rotação da window
mtllib formas.mtl

o triangulo
v 200 900 0
v 113.397 750 0
v 286.603 750 0
usemtl vermelho
f 1 2 3

o quadrado
v 570.711 870.711 0
v 429.289 870.711 0
v 429.289 729.289 0
v 570.711 729.289 0
usemtl laranja
f 4 5 6 7

o pentagono
v 800 900 0
v 704.894 830.902 0
v 741.221 719.098 0
v 858.779 719.098 0
v 895.106 830.902 0
usemtl amarelo
f 8 9 10 11 12

o hexagono
v 200 600 0
v 113.397 550 0
v 113.397 450 0
v 200 400 0
v 286.603 450 0
v 286.603 550 0
usemtl verde
f 13 14 15 16 17 18

o circulo
v 500 600 0
v 480.491 598.079 0
v 461.732 592.388 0
v 444.443 583.147 0
v 429.289 570.711 0
v 416.853 555.557 0
v 407.612 538.268 0
v 401.921 519.509 0
v 400 500 0
v 401.921 480.491 0
v 407.612 461.732 0
v 416.853 444.443 0
v 429.289 429.289 0
v 444.443 416.853 0
v 461.732 407.612 0
v 480.491 401.921 0
v 500 400 0
v 519.509 401.921 0
v 538.268 407.612 0
v 555.557 416.853 0
v 570.711 429.289 0
v 583.147 444.443 0
v 592.388 461.732 0
v 598.079 480.491 0
v 600 500 0
v 598.079 519.509 0
v 592.388 538.268 0
v 583.147 555.557 0
v 570.711 570.711 0
v 555.557 583.147 0
v 538.268 592.388 0
v 519.509 598.079 0
usemtl azul
f 19 20 21 22 23 24 25 26 27 28 29 30 31 32 33 34 35 36 37 38 39 40 41 42 43 44 45 46 47 48 49 50

o estrela
v 800 610 0
v 773.55 536.406 0
v 695.384 533.992 0
v 757.202 486.094 0
v 735.344 411.008 0
v 800 455 0
v 864.656 411.008 0
v 842.798 486.094 0
v 904.616 533.992 0
v 826.45 536.406 0
usemtl roxo
f 51 52 53 54 55 56 57 58 59 60

o espiral
v 200 200 0
v 203.188 200.854 0
v 205.716 203.3 0
v 207 207 0
v 206.6 211.432 0
v 204.271 215.938 0
v 200 219.8 0
v 194.021 222.313 0
v 186.8 222.863 0
v 178.999 221.001 0
v 171.421 216.5 0
v 164.937 209.395 0
v 160.4 200 0
v 158.562 188.897 0
v 159.99 176.9 0
v 164.998 164.998 0
v 173.6 154.274 0
v 185.48 145.812 0
v 200 140.6 0
v 216.228 139.436 0
v 233 142.842 0
v 249.002 150.998 0
v 262.873 163.7 0
v 273.314 180.356 0
v 279.2 200 0
v 279.689 221.353 0
v 274.305 242.9 0
v 263.003 263.003 0
v 246.2 280.021 0
v 224.769 292.439 0
v 200 299 0
v 173.523 298.814 0
v 147.2 291.452 0
v 122.996 277.004 0
v 102.832 256.1 0
v 88.436 229.894 0
v 81.2 200 0
v 82.06 168.398 0
v 91.4 137.3 0
v 108.995 108.995 0
v 134 85.685 0
v 164.982 69.31 0
v 200 61.4 0
v 236.726 62.935 0
v 272.6 74.253 0
v 305.005 94.995 0
v 331.463 124.1 0
v 349.815 159.857 0
v 358.4 200 0
usemtl ciano
l 61 62 63 64 65 66 67 68 69 70 71 72 73 74 75 76 77 78 79 80 81 82 83 84 85 86 87 88 89 90 91 92 93 94 95 96 97 98 99 100 101 102 103 104 105 106 107 108 109

o ziguezague
v 400 140 0
v 425 260 0
v 450 140 0
v 475 260 0
v 500 140 0
v 525 260 0
v 550 140 0
v 575 260 0
v 600 140 0
usemtl rosa
l 110 111 112 113 114 115 116 117 118

o cruz_h
v 720 200 0
v 880 200 0
usemtl preto
l 119 120

o cruz_v
v 800 120 0
v 800 280 0
usemtl preto
l 121 122

o grade
v 920 120 0
v 950 120 0
v 980 120 0
v 920 150 0
v 950 150 0
v 980 150 0
v 920 180 0
v 950 180 0
v 980 180 0
usemtl preto
p 123 124 125 126 127 128 129 130 131
